<svg width="30" height="44" viewBox="0 0 30 44" fill="none" xmlns="http://www.w3.org/2000/svg" xmlns:xlink="http://www.w3.org/1999/xlink">
<line x1="11.891" y1="0.702" x2="11.891" y2="20.983" stroke="#FFFFFF" stroke-width="2" stroke-miterlimit="3.999327"/>
<path d="M10.107,41.56L8.107,41.56L8.107,43.56L10.107,43.56L10.107,41.56ZM10.107,12.18L10.107,10.18L8.107,10.18L8.107,12.18L10.107,12.18ZM12.107,41.56L12.107,12.18L8.107,12.18L8.107,41.56L12.107,41.56ZM10.107,43.56L18.378,43.56L18.378,39.56L10.107,39.56L10.107,43.56ZM10.107,14.18L18.378,14.18L18.378,10.18L10.107,10.18L10.107,14.18Z" transform="rotate(-180 14.243 26.87)" fill="#FFFFFF"/>
<path d="M13.71,23.432L12.262,24.812L13.687,26.306L15.135,24.835L13.71,23.432ZM1.235,13.242L12.262,24.812L15.158,22.052L4.131,10.483L1.235,13.242ZM15.135,24.835L26.524,13.266L23.673,10.46L12.285,22.029L15.135,24.835Z" transform="rotate(0 13.891 17.647)" fill="#FFFFFF"/>
</svg>
