<svg width="80" height="80" viewBox="0 0 80 80" fill="none" xmlns="http://www.w3.org/2000/svg" xmlns:xlink="http://www.w3.org/1999/xlink">
<path d="M39.169,36.452C42.309,36.452 44.854,33.907 44.854,30.767C44.854,27.627 42.309,25.081 39.169,25.081C36.029,25.081 33.483,27.627 33.483,30.767C33.483,33.907 36.029,36.452 39.169,36.452ZM39.169,42.138C45.449,42.138 50.54,37.047 50.54,30.767C50.54,24.487 45.449,19.396 39.169,19.396C32.889,19.396 27.798,24.487 27.798,30.767C27.798,37.047 32.889,42.138 39.169,42.138Z" clip-rule="evenodd" fill-rule="evenodd" fill="#000D39"/>
<circle cx="39.544" cy="39.759" r="40.152" stroke="#000000" stroke-width="1" stroke-miterlimit="3.999327"/>
<path d="M39.169,43.595C30.796,43.595 24.008,50.383 24.008,58.757L17.943,58.757C17.943,47.034 27.446,37.531 39.169,37.531C50.892,37.531 60.395,47.034 60.395,58.757L54.331,58.757C54.331,50.383 47.543,43.595 39.169,43.595Z" clip-rule="evenodd" fill-rule="evenodd" fill="#000D39"/>
</svg>
