<svg width="108" height="90" viewBox="0 0 108 90" fill="none" xmlns="http://www.w3.org/2000/svg" xmlns:xlink="http://www.w3.org/1999/xlink">
<path d="M76.859,23.769L78.395,22.489C78.015,22.033 77.452,21.769 76.859,21.769L76.859,23.769ZM29.071,23.769L29.071,21.769C28.477,21.769 27.914,22.033 27.534,22.489L29.071,23.769ZM33.053,34.92L33.053,32.92C32.547,32.92 32.059,33.112 31.689,33.458L33.053,34.92ZM13.142,86.955L11.142,86.955C11.142,88.06 12.037,88.955 13.142,88.955L13.142,86.955ZM92.788,86.955L92.788,88.955C93.892,88.955 94.788,88.06 94.788,86.955L92.788,86.955ZM72.876,34.92L74.241,33.458C73.871,33.112 73.383,32.92 72.876,32.92L72.876,34.92ZM3.195,27.486C3.195,21.36 4.826,16.952 7.473,13.709C10.142,10.44 13.993,8.173 18.741,6.622C28.331,3.489 40.918,3.468 52.965,3.468L52.965,-0.532C41.118,-0.532 27.82,-0.552 17.499,2.82C12.291,4.521 7.679,7.132 4.374,11.18C1.048,15.255 -0.805,20.604 -0.805,27.486L3.195,27.486ZM52.965,3.468C65.012,3.468 77.599,3.489 87.189,6.622C91.937,8.173 95.788,10.44 98.456,13.709C101.103,16.952 102.735,21.36 102.735,27.486L106.735,27.486C106.735,20.604 104.882,15.255 101.555,11.18C98.25,7.132 93.639,4.521 88.431,2.82C78.109,-0.552 64.812,-0.532 52.965,-0.532L52.965,3.468ZM102.735,27.486C102.735,31.078 102.309,33.526 101.677,35.129C101.06,36.692 100.304,37.325 99.636,37.593C98.913,37.882 97.899,37.9 96.509,37.467C95.127,37.038 93.564,36.219 91.906,35.114C88.594,32.906 85.223,29.769 82.644,27.133C81.363,25.824 80.296,24.657 79.55,23.819C79.178,23.4 78.886,23.064 78.689,22.835C78.59,22.72 78.515,22.632 78.466,22.573C78.441,22.544 78.423,22.522 78.411,22.508C78.405,22.501 78.4,22.495 78.398,22.492C78.397,22.491 78.396,22.49 78.395,22.489C78.395,22.489 78.395,22.489 78.395,22.489C78.395,22.489 78.395,22.489 76.859,23.769C75.322,25.05 75.322,25.05 75.323,25.051C75.323,25.051 75.324,25.052 75.324,25.052C75.326,25.054 75.327,25.056 75.329,25.058C75.333,25.063 75.339,25.07 75.347,25.079C75.362,25.097 75.383,25.123 75.411,25.156C75.467,25.222 75.549,25.318 75.654,25.441C75.865,25.687 76.173,26.04 76.562,26.478C77.341,27.353 78.452,28.567 79.784,29.93C82.432,32.636 86.031,36.004 89.687,38.442C91.514,39.66 93.435,40.7 95.32,41.287C97.197,41.871 99.231,42.063 101.122,41.307C103.067,40.528 104.49,38.897 105.397,36.598C106.289,34.339 106.735,31.328 106.735,27.486L102.735,27.486ZM76.859,21.769L29.071,21.769L29.071,25.769L76.859,25.769L76.859,21.769ZM29.071,23.769C27.534,22.489 27.535,22.489 27.535,22.489C27.535,22.489 27.535,22.489 27.534,22.489C27.534,22.49 27.533,22.491 27.532,22.492C27.529,22.495 27.525,22.501 27.519,22.508C27.507,22.522 27.488,22.544 27.464,22.573C27.414,22.632 27.339,22.72 27.241,22.835C27.043,23.064 26.752,23.4 26.379,23.819C25.633,24.657 24.566,25.824 23.286,27.133C20.706,29.769 17.336,32.906 14.023,35.114C12.366,36.219 10.802,37.038 9.421,37.467C8.031,37.9 7.016,37.882 6.293,37.593C5.625,37.325 4.87,36.692 4.253,35.129C3.62,33.526 3.195,31.078 3.195,27.486L-0.805,27.486C-0.805,31.328 -0.359,34.339 0.532,36.598C1.44,38.897 2.862,40.528 4.808,41.307C6.698,42.063 8.732,41.871 10.609,41.287C12.495,40.7 14.416,39.66 16.242,38.442C19.899,36.004 23.497,32.636 26.145,29.93C27.478,28.567 28.589,27.353 29.367,26.478C29.757,26.04 30.064,25.687 30.275,25.441C30.381,25.318 30.462,25.222 30.518,25.156C30.546,25.123 30.568,25.097 30.583,25.079C30.59,25.07 30.596,25.063 30.6,25.058C30.602,25.056 30.604,25.054 30.605,25.052C30.606,25.052 30.606,25.051 30.606,25.051C30.607,25.05 30.607,25.05 29.071,23.769ZM33.053,34.92C31.689,33.458 31.688,33.458 31.687,33.459C31.687,33.459 31.686,33.46 31.685,33.461C31.684,33.462 31.682,33.464 31.68,33.466C31.676,33.47 31.67,33.475 31.664,33.481C31.651,33.493 31.633,33.51 31.611,33.532C31.566,33.574 31.503,33.636 31.423,33.715C31.263,33.873 31.034,34.104 30.747,34.407C30.173,35.011 29.364,35.903 28.399,37.074C26.469,39.416 23.91,42.88 21.355,47.411C16.244,56.475 11.142,69.819 11.142,86.955L15.142,86.955C15.142,70.64 19.995,57.966 24.84,49.376C27.263,45.079 29.682,41.806 31.485,39.618C32.387,38.524 33.133,37.703 33.648,37.161C33.905,36.89 34.105,36.689 34.236,36.558C34.302,36.493 34.351,36.446 34.381,36.417C34.397,36.402 34.408,36.392 34.414,36.386C34.417,36.383 34.419,36.381 34.419,36.38C34.42,36.38 34.42,36.38 34.42,36.38C34.419,36.38 34.419,36.381 34.419,36.381C34.418,36.381 34.418,36.382 33.053,34.92ZM13.142,88.955L92.788,88.955L92.788,84.955L13.142,84.955L13.142,88.955ZM94.788,86.955C94.788,69.819 89.685,56.475 84.574,47.411C82.019,42.88 79.461,39.416 77.531,37.074C76.565,35.903 75.756,35.011 75.182,34.407C74.895,34.104 74.667,33.873 74.506,33.715C74.426,33.636 74.363,33.574 74.319,33.532C74.296,33.51 74.279,33.493 74.266,33.481C74.259,33.475 74.254,33.47 74.25,33.466C74.248,33.464 74.246,33.462 74.244,33.461C74.244,33.46 74.243,33.459 74.242,33.459C74.242,33.458 74.241,33.458 72.876,34.92C71.512,36.382 71.511,36.381 71.511,36.381C71.51,36.381 71.51,36.38 71.51,36.38C71.51,36.38 71.51,36.38 71.51,36.38C71.511,36.381 71.513,36.383 71.516,36.386C71.522,36.392 71.533,36.402 71.548,36.417C71.579,36.446 71.627,36.493 71.693,36.558C71.825,36.689 72.024,36.89 72.281,37.161C72.796,37.703 73.543,38.524 74.444,39.618C76.248,41.806 78.667,45.079 81.09,49.376C85.934,57.966 90.788,70.64 90.788,86.955L94.788,86.955ZM72.876,32.92L33.053,32.92L33.053,36.92L72.876,36.92L72.876,32.92Z" fill="#FFFFFF"/>
<path d="M66.894,60.938C66.894,67.916 60.79,73.805 52.965,73.805L52.965,77.805C62.735,77.805 70.894,70.381 70.894,60.938L66.894,60.938ZM52.965,73.805C45.14,73.805 39.036,67.916 39.036,60.938L35.036,60.938C35.036,70.381 43.195,77.805 52.965,77.805L52.965,73.805ZM39.036,60.938C39.036,53.959 45.14,48.07 52.965,48.07L52.965,44.07C43.195,44.07 35.036,51.494 35.036,60.938L39.036,60.938ZM52.965,48.07C60.79,48.07 66.894,53.959 66.894,60.938L70.894,60.938C70.894,51.494 62.735,44.07 52.965,44.07L52.965,48.07Z" fill="#FFFFFF"/>
</svg>
