<svg width="68" height="70" viewBox="0 0 68 70" fill="none" xmlns="http://www.w3.org/2000/svg" xmlns:xlink="http://www.w3.org/1999/xlink">
<path d="M65.865,35.565C65.865,33.154 65.649,30.836 65.247,28.61L33.225,28.61L33.225,41.762L51.524,41.762C50.735,46.012 48.34,49.613 44.739,52.024L44.739,60.555L55.727,60.555C62.156,54.636 65.865,45.919 65.865,35.565Z" clip-rule="evenodd" fill-rule="evenodd" fill="#4285F4"/>
<path d="M33.225,68.792C42.405,68.792 50.102,65.747 55.727,60.555L44.739,52.024C41.695,54.064 37.8,55.269 33.225,55.269C24.37,55.269 16.875,49.288 14.201,41.252L2.842,41.252L2.842,50.061C8.436,61.173 19.935,68.792 33.225,68.792Z" clip-rule="evenodd" fill-rule="evenodd" fill="#34A853"/>
<path d="M14.201,41.252C13.521,39.212 13.135,37.033 13.135,34.792C13.135,32.551 13.521,30.372 14.201,28.332L14.201,19.523L2.842,19.523C0.539,24.113 -0.775,29.306 -0.775,34.792C-0.775,40.279 0.539,45.471 2.842,50.061L14.201,41.252Z" clip-rule="evenodd" fill-rule="evenodd" fill="#FBBC05"/>
<path d="M33.225,14.315C38.217,14.315 42.699,16.03 46.223,19.4L55.975,9.648C50.086,4.161 42.39,0.792 33.225,0.792C19.935,0.792 8.436,8.411 2.842,19.523L14.201,28.332C16.875,20.296 24.37,14.315 33.225,14.315Z" clip-rule="evenodd" fill-rule="evenodd" fill="#EA4335"/>
</svg>
