<svg width="96" height="98" viewBox="0 0 96 98" fill="none" xmlns="http://www.w3.org/2000/svg" xmlns:xlink="http://www.w3.org/1999/xlink">
<path d="M41.677,84.57C24.677,81.57 11.677,66.77 11.677,48.97C11.677,29.17 27.877,12.97 47.677,12.97C67.477,12.97 83.677,29.17 83.677,48.97C83.677,66.77 70.677,81.57 53.677,84.57L51.677,82.97L43.677,82.97L41.677,84.57Z" fill="url(#pf_0_i_1_601;276_3)"/>
<path d="M61.677,58.97L63.277,48.97L53.677,48.97L53.677,41.97C53.677,39.17 54.677,36.97 59.077,36.97L63.677,36.97L63.677,27.77C61.077,27.37 58.277,26.97 55.677,26.97C47.477,26.97 41.677,31.97 41.677,40.97L41.677,48.97L32.677,48.97L32.677,58.97L41.677,58.97L41.677,84.37C43.677,84.77 45.677,84.97 47.677,84.97C49.677,84.97 51.677,84.77 53.677,84.37L53.677,58.97L61.677,58.97Z" fill="#FFFFFF"/>
<defs>
<linearGradient id="pf_0_i_1_601;276_3" x1="47.677" y1="82.478" x2="47.677" y2="12.97" gradientUnits="userSpaceOnUse">
<stop stop-color="#0062E0"/>
<stop offset="1" stop-color="#19AFFF"/>
</linearGradient>
</defs>
</svg>
