<svg width="94" height="92" viewBox="0 0 94 92" fill="none" xmlns="http://www.w3.org/2000/svg" xmlns:xlink="http://www.w3.org/1999/xlink">
<path d="M47.257,24.978C42.991,24.978 38.822,26.214 35.275,28.53C31.729,30.845 28.965,34.137 27.333,37.988C25.7,41.839 25.273,46.077 26.105,50.165C26.937,54.253 28.991,58.009 32.007,60.956C35.023,63.903 38.866,65.911 43.049,66.724C47.233,67.537 51.569,67.12 55.509,65.525C59.45,63.929 62.818,61.228 65.188,57.762C67.558,54.296 68.822,50.222 68.822,46.053C68.816,40.466 66.542,35.108 62.499,31.157C58.456,27.206 52.974,24.984 47.257,24.978ZM47.257,60.104C44.413,60.104 41.633,59.28 39.269,57.736C36.905,56.192 35.062,53.998 33.974,51.43C32.886,48.863 32.601,46.038 33.156,43.312C33.711,40.587 35.08,38.083 37.09,36.118C39.101,34.153 41.663,32.815 44.452,32.273C47.241,31.731 50.131,32.009 52.759,33.072C55.386,34.136 57.631,35.937 59.211,38.247C60.791,40.558 61.634,43.274 61.634,46.053C61.634,49.78 60.119,53.353 57.423,55.988C54.727,58.623 51.07,60.104 47.257,60.104ZM68.822,0.39L25.691,0.39C19.02,0.396 12.625,2.989 7.908,7.599C3.191,12.209 0.538,18.459 0.531,24.978L0.531,67.129C0.538,73.648 3.191,79.898 7.908,84.508C12.625,89.117 19.02,91.71 25.691,91.717L68.822,91.717C75.493,91.71 81.888,89.117 86.605,84.508C91.322,79.898 93.975,73.648 93.982,67.129L93.982,24.978C93.975,18.459 91.322,12.209 86.605,7.599C81.888,2.989 75.493,0.396 68.822,0.39ZM86.794,67.129C86.794,71.787 84.9,76.254 81.53,79.548C78.16,82.841 73.589,84.692 68.822,84.692L25.691,84.692C20.925,84.692 16.354,82.841 12.983,79.548C9.613,76.254 7.72,71.787 7.72,67.129L7.72,24.978C7.72,20.32 9.613,15.852 12.983,12.559C16.354,9.265 20.925,7.415 25.691,7.415L68.822,7.415C73.589,7.415 78.16,9.265 81.53,12.559C84.9,15.852 86.794,20.32 86.794,24.978L86.794,67.129ZM76.011,23.221C76.011,24.264 75.695,25.282 75.102,26.149C74.51,27.015 73.668,27.69 72.683,28.089C71.698,28.488 70.614,28.592 69.568,28.389C68.522,28.186 67.561,27.684 66.807,26.947C66.053,26.21 65.54,25.271 65.332,24.249C65.124,23.227 65.23,22.168 65.638,21.205C66.047,20.242 66.738,19.419 67.624,18.84C68.511,18.262 69.553,17.952 70.62,17.952C72.049,17.952 73.421,18.508 74.432,19.496C75.443,20.484 76.011,21.824 76.011,23.221Z" fill="#FFFFFF"/>
</svg>
