<svg width="74" height="80" viewBox="0 0 74 80" fill="none" xmlns="http://www.w3.org/2000/svg" xmlns:xlink="http://www.w3.org/1999/xlink">
<path d="M46.381,28.124L53.991,28.124L53.991,35.312L46.381,35.312L46.381,28.124ZM53.991,13.748L46.381,13.748L46.381,20.936L53.991,20.936L53.991,13.748ZM31.159,49.688L38.77,49.688L38.77,42.5L31.159,42.5L31.159,49.688ZM38.77,13.748L31.159,13.748L31.159,20.936L38.77,20.936L38.77,13.748ZM31.159,35.312L38.77,35.312L38.77,28.124L31.159,28.124L31.159,35.312ZM23.549,13.748L15.938,13.748L15.938,20.936L23.549,20.936L23.549,13.748ZM23.549,28.124L15.938,28.124L15.938,35.312L23.549,35.312L23.549,28.124ZM44.668,71.252L38.77,71.252L38.77,58.673L31.159,58.673L31.159,71.252L8.327,71.252L8.327,6.56L61.602,6.56L61.602,35.42C64.304,35.636 66.891,36.426 69.212,37.577L69.212,-0.628L0.717,-0.628L0.717,78.44L49.843,78.44C48.283,76.428 46.381,73.984 44.668,71.252ZM15.938,64.064L23.549,64.064L23.549,56.876L15.938,56.876L15.938,64.064ZM23.549,42.5L15.938,42.5L15.938,49.688L23.549,49.688L23.549,42.5ZM73.018,55.079C73.018,64.424 59.699,78.44 59.699,78.44C59.699,78.44 46.381,64.424 46.381,55.079C46.381,48.251 52.469,42.5 59.699,42.5C66.929,42.5 73.018,48.251 73.018,55.079ZM64.265,55.439C64.265,53.282 61.982,51.126 59.699,51.126C57.416,51.126 55.133,52.923 55.133,55.439C55.133,57.595 57.035,59.751 59.699,59.751C62.363,59.751 64.646,57.595 64.265,55.439Z" fill="#FFFFFF"/>
</svg>
