<svg width="80" height="60" viewBox="0 0 80 60" fill="none" xmlns="http://www.w3.org/2000/svg" xmlns:xlink="http://www.w3.org/1999/xlink">
<path d="M71.053,52.318L63.265,52.318L63.265,19.022L39.903,33.292L16.54,19.022L16.54,52.318L8.752,52.318L8.752,6.654L13.425,6.654L39.903,22.827L66.381,6.654L71.053,6.654M71.053,-0.956L8.752,-0.956C4.43,-0.956 0.965,2.43 0.965,6.654L0.965,52.318C0.965,54.337 1.785,56.272 3.246,57.7C4.706,59.127 6.687,59.929 8.752,59.929L71.053,59.929C73.119,59.929 75.099,59.127 76.56,57.7C78.02,56.272 78.841,54.337 78.841,52.318L78.841,6.654C78.841,4.636 78.02,2.7 76.56,1.273C75.099,-0.154 73.119,-0.956 71.053,-0.956Z" fill="#FFFFFF"/>
</svg>
