<svg width="94" height="92" viewBox="0 0 94 92" fill="none" xmlns="http://www.w3.org/2000/svg" xmlns:xlink="http://www.w3.org/1999/xlink">
<path d="M92.752,46.167C92.752,20.897 71.819,0.389 46.027,0.389C20.234,0.389 -0.699,20.897 -0.699,46.167C-0.699,68.324 15.375,86.772 36.682,91.03L36.682,59.9L27.336,59.9L27.336,46.167L36.682,46.167L36.682,34.722C36.682,25.887 44.017,18.7 53.036,18.7L64.717,18.7L64.717,32.434L55.372,32.434C52.802,32.434 50.699,34.494 50.699,37.011L50.699,46.167L64.717,46.167L64.717,59.9L50.699,59.9L50.699,91.716C74.296,89.427 92.752,69.926 92.752,46.167Z" fill="#FFFFFF"/>
</svg>
